<svg enable-background="new 0 0 512 512" viewBox="0 0 512 512" xmlns="http://www.w3.org/2000/svg"><path d="m490.667 512h-469.334c-11.733 0-21.333-9.6-21.333-21.333v-417.067c0-11.733 9.6-21.333 21.333-21.333h469.333c11.734 0 21.334 9.6 21.334 21.333v417.067c0 11.733-9.6 21.333-21.333 21.333z" fill="#ff7058"/><path d="m474.667 173.867h-437.334c-6.4 0-10.667 4.267-10.667 10.667v290.133c0 6.4 4.267 10.667 10.667 10.667h362.667l85.333-85.334v-215.467c0-5.333-4.266-10.666-10.666-10.666z" fill="#f2f2f2"/><path d="m400 485.333 85.333-85.333h-75.733c-5.333 0-9.6 4.267-9.6 9.6z" fill="#cdd6e0"/><circle cx="85.333" cy="92.8" fill="#fff" r="22.4"/><circle cx="199.467" cy="92.8" fill="#fff" r="22.4"/><circle cx="312.533" cy="92.8" fill="#fff" r="22.4"/><circle cx="426.667" cy="92.8" fill="#fff" r="22.4"/><path d="m85.333 104.533c-7.467 0-13.867-6.4-13.867-13.867v-76.8c-1.066-7.466 5.334-13.866 13.867-13.866 7.467 0 13.867 6.4 13.867 13.867v75.733c0 8.533-6.4 14.933-13.867 14.933z" fill="#40596b"/><path d="m199.467 104.533c-7.467 0-13.867-6.4-13.867-13.867v-76.8c0-7.466 6.4-13.866 13.867-13.866s13.867 6.4 13.867 13.867v75.733c-.001 8.533-6.401 14.933-13.867 14.933z" fill="#40596b"/><path d="m312.533 104.533c-7.467 0-13.867-6.4-13.867-13.867v-76.8c.001-7.466 6.401-13.866 13.867-13.866 7.467 0 13.867 6.4 13.867 13.867v75.733c1.067 8.533-5.333 14.933-13.867 14.933z" fill="#40596b"/><path d="m426.667 104.533c-7.467 0-13.867-6.4-13.867-13.867v-76.8c0-7.466 6.4-13.866 13.867-13.866s13.867 6.4 13.867 13.867v75.733c1.066 8.533-5.334 14.933-13.867 14.933z" fill="#40596b"/><g fill="#cdd6e0"><path d="m167.467 205.867h67.2v60.8h-67.2z"/><path d="m277.333 205.867h67.2v60.8h-67.2z"/><path d="m386.133 205.867h67.2v60.8h-67.2z"/><path d="m58.667 299.733h67.2v60.8h-67.2z"/></g><path d="m167.467 299.733h67.2v60.8h-67.2z" fill="#ffd15c"/><g fill="#cdd6e0"><path d="m277.333 299.733h67.2v60.8h-67.2z"/><path d="m386.133 299.733h67.2v60.8h-67.2z"/><path d="m58.667 392.533h67.2v60.8h-67.2z"/><path d="m167.467 392.533h67.2v60.8h-67.2z"/><path d="m277.333 392.533h67.2v60.8h-67.2z"/></g></svg>